<svg xmlns="http://www.w3.org/2000/svg" viewBox="0 0 1380 556" width="100%" height="100%" style="background:#0d1117">
<path d="M 1280 123 C 790 123, 790 199, 300 199" fill="none" stroke="#58a6ff" stroke-width="1.5" stroke-dasharray="4,3"/>
<line x1="1272" y1="118" x2="1272" y2="128" stroke="#58a6ff" stroke-width="1.5"/>
<circle cx="1266" cy="123" r="4" fill="none" stroke="#58a6ff" stroke-width="1.5"/>
<line x1="308" y1="194" x2="308" y2="204" stroke="#58a6ff" stroke-width="1.5"/>
<line x1="314" y1="194" x2="314" y2="204" stroke="#58a6ff" stroke-width="1.5"/>
<path d="M 1280 101 C 1050 101, 1050 101, 820 101" fill="none" stroke="#58a6ff" stroke-width="1.5" stroke-dasharray="4,3"/>
<line x1="1272" y1="96" x2="1272" y2="106" stroke="#58a6ff" stroke-width="1.5"/>
<circle cx="1266" cy="101" r="4" fill="none" stroke="#58a6ff" stroke-width="1.5"/>
<line x1="828" y1="96" x2="828" y2="106" stroke="#58a6ff" stroke-width="1.5"/>
<line x1="834" y1="96" x2="834" y2="106" stroke="#58a6ff" stroke-width="1.5"/>
<path d="M 1280 287 C 790 287, 790 199, 300 199" fill="none" stroke="#58a6ff" stroke-width="1.5" stroke-dasharray="4,3"/>
<line x1="1272" y1="282" x2="1272" y2="292" stroke="#58a6ff" stroke-width="1.5"/>
<circle cx="1266" cy="287" r="4" fill="none" stroke="#58a6ff" stroke-width="1.5"/>
<line x1="308" y1="194" x2="308" y2="204" stroke="#58a6ff" stroke-width="1.5"/>
<line x1="314" y1="194" x2="314" y2="204" stroke="#58a6ff" stroke-width="1.5"/>
<path d="M 1280 265 C 1050 265, 1050 265, 820 265" fill="none" stroke="#58a6ff" stroke-width="1.5" stroke-dasharray="4,3"/>
<line x1="1272" y1="260" x2="1272" y2="270" stroke="#58a6ff" stroke-width="1.5"/>
<circle cx="1266" cy="265" r="4" fill="none" stroke="#58a6ff" stroke-width="1.5"/>
<line x1="828" y1="260" x2="828" y2="270" stroke="#58a6ff" stroke-width="1.5"/>
<line x1="834" y1="260" x2="834" y2="270" stroke="#58a6ff" stroke-width="1.5"/>
<path d="M 500 123 C 270 123, 270 483, 40 483" fill="none" stroke="#58a6ff" stroke-width="1.5" stroke-dasharray="4,3"/>
<line x1="492" y1="118" x2="492" y2="128" stroke="#58a6ff" stroke-width="1.5"/>
<circle cx="486" cy="123" r="4" fill="none" stroke="#58a6ff" stroke-width="1.5"/>
<line x1="48" y1="478" x2="48" y2="488" stroke="#58a6ff" stroke-width="1.5"/>
<line x1="54" y1="478" x2="54" y2="488" stroke="#58a6ff" stroke-width="1.5"/>
<path d="M 500 243 C 270 243, 270 483, 40 483" fill="none" stroke="#58a6ff" stroke-width="1.5" stroke-dasharray="4,3"/>
<line x1="492" y1="238" x2="492" y2="248" stroke="#58a6ff" stroke-width="1.5"/>
<circle cx="486" cy="243" r="4" fill="none" stroke="#58a6ff" stroke-width="1.5"/>
<line x1="48" y1="478" x2="48" y2="488" stroke="#58a6ff" stroke-width="1.5"/>
<line x1="54" y1="478" x2="54" y2="488" stroke="#58a6ff" stroke-width="1.5"/>
<path d="M 500 221 C 270 221, 270 265, 40 265" fill="none" stroke="#58a6ff" stroke-width="1.5" stroke-dasharray="4,3"/>
<line x1="492" y1="216" x2="492" y2="226" stroke="#58a6ff" stroke-width="1.5"/>
<circle cx="486" cy="221" r="4" fill="none" stroke="#58a6ff" stroke-width="1.5"/>
<line x1="48" y1="260" x2="48" y2="270" stroke="#58a6ff" stroke-width="1.5"/>
<line x1="54" y1="260" x2="54" y2="270" stroke="#58a6ff" stroke-width="1.5"/>
<path d="M 1020 145 C 530 145, 530 101, 40 101" fill="none" stroke="#58a6ff" stroke-width="1.5" stroke-dasharray="4,3"/>
<line x1="1012" y1="140" x2="1012" y2="150" stroke="#58a6ff" stroke-width="1.5"/>
<circle cx="1006" cy="145" r="4" fill="none" stroke="#58a6ff" stroke-width="1.5"/>
<line x1="48" y1="96" x2="48" y2="106" stroke="#58a6ff" stroke-width="1.5"/>
<line x1="54" y1="96" x2="54" y2="106" stroke="#58a6ff" stroke-width="1.5"/>
<path d="M 1020 123 C 790 123, 790 101, 560 101" fill="none" stroke="#58a6ff" stroke-width="1.5" stroke-dasharray="4,3"/>
<line x1="1012" y1="118" x2="1012" y2="128" stroke="#58a6ff" stroke-width="1.5"/>
<circle cx="1006" cy="123" r="4" fill="none" stroke="#58a6ff" stroke-width="1.5"/>
<line x1="568" y1="96" x2="568" y2="106" stroke="#58a6ff" stroke-width="1.5"/>
<line x1="574" y1="96" x2="574" y2="106" stroke="#58a6ff" stroke-width="1.5"/>
<path d="M 760 145 C 530 145, 530 101, 300 101" fill="none" stroke="#58a6ff" stroke-width="1.5" stroke-dasharray="4,3"/>
<line x1="752" y1="140" x2="752" y2="150" stroke="#58a6ff" stroke-width="1.5"/>
<circle cx="746" cy="145" r="4" fill="none" stroke="#58a6ff" stroke-width="1.5"/>
<line x1="308" y1="96" x2="308" y2="106" stroke="#58a6ff" stroke-width="1.5"/>
<line x1="314" y1="96" x2="314" y2="106" stroke="#58a6ff" stroke-width="1.5"/>
<path d="M 760 123 C 400 123, 400 385, 40 385" fill="none" stroke="#58a6ff" stroke-width="1.5" stroke-dasharray="4,3"/>
<line x1="752" y1="118" x2="752" y2="128" stroke="#58a6ff" stroke-width="1.5"/>
<circle cx="746" cy="123" r="4" fill="none" stroke="#58a6ff" stroke-width="1.5"/>
<line x1="48" y1="380" x2="48" y2="390" stroke="#58a6ff" stroke-width="1.5"/>
<line x1="54" y1="380" x2="54" y2="390" stroke="#58a6ff" stroke-width="1.5"/>
<path d="M 1020 287 C 790 287, 790 101, 560 101" fill="none" stroke="#58a6ff" stroke-width="1.5" stroke-dasharray="4,3"/>
<line x1="1012" y1="282" x2="1012" y2="292" stroke="#58a6ff" stroke-width="1.5"/>
<circle cx="1006" cy="287" r="4" fill="none" stroke="#58a6ff" stroke-width="1.5"/>
<line x1="568" y1="96" x2="568" y2="106" stroke="#58a6ff" stroke-width="1.5"/>
<line x1="574" y1="96" x2="574" y2="106" stroke="#58a6ff" stroke-width="1.5"/>
<rect x="1080" y="60" width="200" height="140" rx="6" fill="#161b22" stroke="#30363d" stroke-width="1"/>
<rect x="1080" y="84" width="200" height="6" rx="0" fill="#1c2128" stroke="#1c2128" stroke-width="1"/>
<rect x="1080" y="60" width="200" height="30" rx="6" fill="#1c2128" stroke="#30363d" stroke-width="1"/>
<line x1="1080" y1="90" x2="1280" y2="90" stroke="#30363d" stroke-width="1"/>
<text x="1090" y="79" fill="#e6edf3" font-size="13" font-weight="600" font-family="monospace">CTHD</text>
<rect x="1080" y="90" width="200" height="22" rx="0" fill="#161b22" stroke="none" stroke-width="1"/>
<text x="1090" y="105" fill="#58a6ff" font-size="11" font-weight="600" font-family="monospace">🔑 MAHD</text>
<text x="1270" y="105" fill="#8b949e" font-size="9" font-weight="400" font-family="monospace" text-anchor="end">text</text>
<rect x="1080" y="112" width="200" height="22" rx="0" fill="#1c2128" stroke="none" stroke-width="1"/>
<text x="1090" y="127" fill="#58a6ff" font-size="11" font-weight="600" font-family="monospace">🔑 MAHH</text>
<text x="1270" y="127" fill="#8b949e" font-size="9" font-weight="400" font-family="monospace" text-anchor="end">text</text>
<rect x="1080" y="134" width="200" height="22" rx="0" fill="#161b22" stroke="none" stroke-width="1"/>
<text x="1090" y="149" fill="#c9d1d9" font-size="11" font-weight="400" font-family="monospace">SLBAN</text>
<text x="1270" y="149" fill="#8b949e" font-size="9" font-weight="400" font-family="monospace" text-anchor="end">integer</text>
<rect x="1080" y="156" width="200" height="22" rx="0" fill="#1c2128" stroke="none" stroke-width="1"/>
<text x="1090" y="171" fill="#c9d1d9" font-size="11" font-weight="400" font-family="monospace">CKBAN</text>
<text x="1270" y="171" fill="#8b949e" font-size="9" font-weight="400" font-family="monospace" text-anchor="end">real</text>
<rect x="1080" y="178" width="200" height="22" rx="0" fill="#161b22" stroke="none" stroke-width="1"/>
<text x="1090" y="193" fill="#c9d1d9" font-size="11" font-weight="400" font-family="monospace">THANHTIEN</text>
<text x="1270" y="193" fill="#8b949e" font-size="9" font-weight="400" font-family="monospace" text-anchor="end">real</text>
<rect x="1080" y="224" width="200" height="96" rx="6" fill="#161b22" stroke="#30363d" stroke-width="1"/>
<rect x="1080" y="248" width="200" height="6" rx="0" fill="#1c2128" stroke="#1c2128" stroke-width="1"/>
<rect x="1080" y="224" width="200" height="30" rx="6" fill="#1c2128" stroke="#30363d" stroke-width="1"/>
<line x1="1080" y1="254" x2="1280" y2="254" stroke="#30363d" stroke-width="1"/>
<text x="1090" y="243" fill="#e6edf3" font-size="13" font-weight="600" font-family="monospace">CTPX</text>
<rect x="1080" y="254" width="200" height="22" rx="0" fill="#161b22" stroke="none" stroke-width="1"/>
<text x="1090" y="269" fill="#58a6ff" font-size="11" font-weight="600" font-family="monospace">🔑 MAPX</text>
<text x="1270" y="269" fill="#8b949e" font-size="9" font-weight="400" font-family="monospace" text-anchor="end">text</text>
<rect x="1080" y="276" width="200" height="22" rx="0" fill="#1c2128" stroke="none" stroke-width="1"/>
<text x="1090" y="291" fill="#58a6ff" font-size="11" font-weight="600" font-family="monospace">🔑 MAHH</text>
<text x="1270" y="291" fill="#8b949e" font-size="9" font-weight="400" font-family="monospace" text-anchor="end">text</text>
<rect x="1080" y="298" width="200" height="22" rx="0" fill="#161b22" stroke="none" stroke-width="1"/>
<text x="1090" y="313" fill="#c9d1d9" font-size="11" font-weight="400" font-family="monospace">SOLUONG</text>
<text x="1270" y="313" fill="#8b949e" font-size="9" font-weight="400" font-family="monospace" text-anchor="end">integer</text>
<rect x="40" y="60" width="200" height="140" rx="6" fill="#161b22" stroke="#30363d" stroke-width="1"/>
<rect x="40" y="84" width="200" height="6" rx="0" fill="#1c2128" stroke="#1c2128" stroke-width="1"/>
<rect x="40" y="60" width="200" height="30" rx="6" fill="#1c2128" stroke="#30363d" stroke-width="1"/>
<line x1="40" y1="90" x2="240" y2="90" stroke="#30363d" stroke-width="1"/>
<text x="50" y="79" fill="#e6edf3" font-size="13" font-weight="600" font-family="monospace">DAI_LY</text>
<rect x="40" y="90" width="200" height="22" rx="0" fill="#161b22" stroke="none" stroke-width="1"/>
<text x="50" y="105" fill="#58a6ff" font-size="11" font-weight="600" font-family="monospace">🔑 MADL</text>
<text x="230" y="105" fill="#8b949e" font-size="9" font-weight="400" font-family="monospace" text-anchor="end">text</text>
<rect x="40" y="112" width="200" height="22" rx="0" fill="#1c2128" stroke="none" stroke-width="1"/>
<text x="50" y="127" fill="#c9d1d9" font-size="11" font-weight="400" font-family="monospace">TENDL</text>
<text x="230" y="127" fill="#8b949e" font-size="9" font-weight="400" font-family="monospace" text-anchor="end">text</text>
<rect x="40" y="134" width="200" height="22" rx="0" fill="#161b22" stroke="none" stroke-width="1"/>
<text x="50" y="149" fill="#c9d1d9" font-size="11" font-weight="400" font-family="monospace">MASOTHUE</text>
<text x="230" y="149" fill="#8b949e" font-size="9" font-weight="400" font-family="monospace" text-anchor="end">text</text>
<rect x="40" y="156" width="200" height="22" rx="0" fill="#1c2128" stroke="none" stroke-width="1"/>
<text x="50" y="171" fill="#c9d1d9" font-size="11" font-weight="400" font-family="monospace">DIACHI</text>
<text x="230" y="171" fill="#8b949e" font-size="9" font-weight="400" font-family="monospace" text-anchor="end">text</text>
<rect x="40" y="178" width="200" height="22" rx="0" fill="#161b22" stroke="none" stroke-width="1"/>
<text x="50" y="193" fill="#c9d1d9" font-size="11" font-weight="400" font-family="monospace">DIENTHOAI</text>
<text x="230" y="193" fill="#8b949e" font-size="9" font-weight="400" font-family="monospace" text-anchor="end">text</text>
<rect x="300" y="60" width="200" height="74" rx="6" fill="#161b22" stroke="#30363d" stroke-width="1"/>
<rect x="300" y="84" width="200" height="6" rx="0" fill="#1c2128" stroke="#1c2128" stroke-width="1"/>
<rect x="300" y="60" width="200" height="30" rx="6" fill="#1c2128" stroke="#30363d" stroke-width="1"/>
<line x1="300" y1="90" x2="500" y2="90" stroke="#30363d" stroke-width="1"/>
<text x="310" y="79" fill="#e6edf3" font-size="13" font-weight="600" font-family="monospace">DOI</text>
<rect x="300" y="90" width="200" height="22" rx="0" fill="#161b22" stroke="none" stroke-width="1"/>
<text x="310" y="105" fill="#58a6ff" font-size="11" font-weight="600" font-family="monospace">🔑 MADOI</text>
<text x="490" y="105" fill="#8b949e" font-size="9" font-weight="400" font-family="monospace" text-anchor="end">text</text>
<rect x="300" y="112" width="200" height="22" rx="0" fill="#1c2128" stroke="none" stroke-width="1"/>
<text x="310" y="127" fill="#8b949e" font-size="11" font-weight="400" font-family="monospace">↳ MANHOM</text>
<text x="490" y="127" fill="#8b949e" font-size="9" font-weight="400" font-family="monospace" text-anchor="end">text</text>
<rect x="300" y="158" width="200" height="184" rx="6" fill="#161b22" stroke="#30363d" stroke-width="1"/>
<rect x="300" y="182" width="200" height="6" rx="0" fill="#1c2128" stroke="#1c2128" stroke-width="1"/>
<rect x="300" y="158" width="200" height="30" rx="6" fill="#1c2128" stroke="#30363d" stroke-width="1"/>
<line x1="300" y1="188" x2="500" y2="188" stroke="#30363d" stroke-width="1"/>
<text x="310" y="177" fill="#e6edf3" font-size="13" font-weight="600" font-family="monospace">HANG_HOA</text>
<rect x="300" y="188" width="200" height="22" rx="0" fill="#161b22" stroke="none" stroke-width="1"/>
<text x="310" y="203" fill="#58a6ff" font-size="11" font-weight="600" font-family="monospace">🔑 MAHH</text>
<text x="490" y="203" fill="#8b949e" font-size="9" font-weight="400" font-family="monospace" text-anchor="end">text</text>
<rect x="300" y="210" width="200" height="22" rx="0" fill="#1c2128" stroke="none" stroke-width="1"/>
<text x="310" y="225" fill="#8b949e" font-size="11" font-weight="400" font-family="monospace">↳ MAHTDG</text>
<text x="490" y="225" fill="#8b949e" font-size="9" font-weight="400" font-family="monospace" text-anchor="end">text</text>
<rect x="300" y="232" width="200" height="22" rx="0" fill="#161b22" stroke="none" stroke-width="1"/>
<text x="310" y="247" fill="#8b949e" font-size="11" font-weight="400" font-family="monospace">↳ MANHOM</text>
<text x="490" y="247" fill="#8b949e" font-size="9" font-weight="400" font-family="monospace" text-anchor="end">text</text>
<rect x="300" y="254" width="200" height="22" rx="0" fill="#1c2128" stroke="none" stroke-width="1"/>
<text x="310" y="269" fill="#c9d1d9" font-size="11" font-weight="400" font-family="monospace">TENHH</text>
<text x="490" y="269" fill="#8b949e" font-size="9" font-weight="400" font-family="monospace" text-anchor="end">text</text>
<rect x="300" y="276" width="200" height="22" rx="0" fill="#161b22" stroke="none" stroke-width="1"/>
<text x="310" y="291" fill="#c9d1d9" font-size="11" font-weight="400" font-family="monospace">DVT</text>
<text x="490" y="291" fill="#8b949e" font-size="9" font-weight="400" font-family="monospace" text-anchor="end">text</text>
<rect x="300" y="298" width="200" height="22" rx="0" fill="#1c2128" stroke="none" stroke-width="1"/>
<text x="310" y="313" fill="#c9d1d9" font-size="11" font-weight="400" font-family="monospace">DONGIA</text>
<text x="490" y="313" fill="#8b949e" font-size="9" font-weight="400" font-family="monospace" text-anchor="end">real</text>
<rect x="300" y="320" width="200" height="22" rx="0" fill="#161b22" stroke="none" stroke-width="1"/>
<text x="310" y="335" fill="#c9d1d9" font-size="11" font-weight="400" font-family="monospace">SLTON</text>
<text x="490" y="335" fill="#8b949e" font-size="9" font-weight="400" font-family="monospace" text-anchor="end">integer</text>
<rect x="40" y="224" width="200" height="96" rx="6" fill="#161b22" stroke="#30363d" stroke-width="1"/>
<rect x="40" y="248" width="200" height="6" rx="0" fill="#1c2128" stroke="#1c2128" stroke-width="1"/>
<rect x="40" y="224" width="200" height="30" rx="6" fill="#1c2128" stroke="#30363d" stroke-width="1"/>
<line x1="40" y1="254" x2="240" y2="254" stroke="#30363d" stroke-width="1"/>
<text x="50" y="243" fill="#e6edf3" font-size="13" font-weight="600" font-family="monospace">HINH_THUC_DONG_GOI</text>
<rect x="40" y="254" width="200" height="22" rx="0" fill="#161b22" stroke="none" stroke-width="1"/>
<text x="50" y="269" fill="#58a6ff" font-size="11" font-weight="600" font-family="monospace">🔑 MAHTDG</text>
<text x="230" y="269" fill="#8b949e" font-size="9" font-weight="400" font-family="monospace" text-anchor="end">text</text>
<rect x="40" y="276" width="200" height="22" rx="0" fill="#1c2128" stroke="none" stroke-width="1"/>
<text x="50" y="291" fill="#c9d1d9" font-size="11" font-weight="400" font-family="monospace">THUNG</text>
<text x="230" y="291" fill="#8b949e" font-size="9" font-weight="400" font-family="monospace" text-anchor="end">integer</text>
<rect x="40" y="298" width="200" height="22" rx="0" fill="#161b22" stroke="none" stroke-width="1"/>
<text x="50" y="313" fill="#c9d1d9" font-size="11" font-weight="400" font-family="monospace">LOC</text>
<text x="230" y="313" fill="#8b949e" font-size="9" font-weight="400" font-family="monospace" text-anchor="end">integer</text>
<rect x="820" y="60" width="200" height="140" rx="6" fill="#161b22" stroke="#30363d" stroke-width="1"/>
<rect x="820" y="84" width="200" height="6" rx="0" fill="#1c2128" stroke="#1c2128" stroke-width="1"/>
<rect x="820" y="60" width="200" height="30" rx="6" fill="#1c2128" stroke="#30363d" stroke-width="1"/>
<line x1="820" y1="90" x2="1020" y2="90" stroke="#30363d" stroke-width="1"/>
<text x="830" y="79" fill="#e6edf3" font-size="13" font-weight="600" font-family="monospace">HOA_DON</text>
<rect x="820" y="90" width="200" height="22" rx="0" fill="#161b22" stroke="none" stroke-width="1"/>
<text x="830" y="105" fill="#58a6ff" font-size="11" font-weight="600" font-family="monospace">🔑 MAHD</text>
<text x="1010" y="105" fill="#8b949e" font-size="9" font-weight="400" font-family="monospace" text-anchor="end">text</text>
<rect x="820" y="112" width="200" height="22" rx="0" fill="#1c2128" stroke="none" stroke-width="1"/>
<text x="830" y="127" fill="#8b949e" font-size="11" font-weight="400" font-family="monospace">↳ MANV</text>
<text x="1010" y="127" fill="#8b949e" font-size="9" font-weight="400" font-family="monospace" text-anchor="end">text</text>
<rect x="820" y="134" width="200" height="22" rx="0" fill="#161b22" stroke="none" stroke-width="1"/>
<text x="830" y="149" fill="#8b949e" font-size="11" font-weight="400" font-family="monospace">↳ MADL</text>
<text x="1010" y="149" fill="#8b949e" font-size="9" font-weight="400" font-family="monospace" text-anchor="end">text</text>
<rect x="820" y="156" width="200" height="22" rx="0" fill="#1c2128" stroke="none" stroke-width="1"/>
<text x="830" y="171" fill="#c9d1d9" font-size="11" font-weight="400" font-family="monospace">NGAYLAP</text>
<text x="1010" y="171" fill="#8b949e" font-size="9" font-weight="400" font-family="monospace" text-anchor="end">text</text>
<rect x="820" y="178" width="200" height="22" rx="0" fill="#161b22" stroke="none" stroke-width="1"/>
<text x="830" y="193" fill="#c9d1d9" font-size="11" font-weight="400" font-family="monospace">TONGTIEN</text>
<text x="1010" y="193" fill="#8b949e" font-size="9" font-weight="400" font-family="monospace" text-anchor="end">real</text>
<rect x="40" y="344" width="200" height="74" rx="6" fill="#161b22" stroke="#30363d" stroke-width="1"/>
<rect x="40" y="368" width="200" height="6" rx="0" fill="#1c2128" stroke="#1c2128" stroke-width="1"/>
<rect x="40" y="344" width="200" height="30" rx="6" fill="#1c2128" stroke="#30363d" stroke-width="1"/>
<line x1="40" y1="374" x2="240" y2="374" stroke="#30363d" stroke-width="1"/>
<text x="50" y="363" fill="#e6edf3" font-size="13" font-weight="600" font-family="monospace">LOAI_NV</text>
<rect x="40" y="374" width="200" height="22" rx="0" fill="#161b22" stroke="none" stroke-width="1"/>
<text x="50" y="389" fill="#58a6ff" font-size="11" font-weight="600" font-family="monospace">🔑 MALNV</text>
<text x="230" y="389" fill="#8b949e" font-size="9" font-weight="400" font-family="monospace" text-anchor="end">text</text>
<rect x="40" y="396" width="200" height="22" rx="0" fill="#1c2128" stroke="none" stroke-width="1"/>
<text x="50" y="411" fill="#c9d1d9" font-size="11" font-weight="400" font-family="monospace">TENLOAI</text>
<text x="230" y="411" fill="#8b949e" font-size="9" font-weight="400" font-family="monospace" text-anchor="end">text</text>
<rect x="560" y="60" width="200" height="250" rx="6" fill="#161b22" stroke="#30363d" stroke-width="1"/>
<rect x="560" y="84" width="200" height="6" rx="0" fill="#1c2128" stroke="#1c2128" stroke-width="1"/>
<rect x="560" y="60" width="200" height="30" rx="6" fill="#1c2128" stroke="#30363d" stroke-width="1"/>
<line x1="560" y1="90" x2="760" y2="90" stroke="#30363d" stroke-width="1"/>
<text x="570" y="79" fill="#e6edf3" font-size="13" font-weight="600" font-family="monospace">NHAN_VIEN</text>
<rect x="560" y="90" width="200" height="22" rx="0" fill="#161b22" stroke="none" stroke-width="1"/>
<text x="570" y="105" fill="#58a6ff" font-size="11" font-weight="600" font-family="monospace">🔑 MANV</text>
<text x="750" y="105" fill="#8b949e" font-size="9" font-weight="400" font-family="monospace" text-anchor="end">text</text>
<rect x="560" y="112" width="200" height="22" rx="0" fill="#1c2128" stroke="none" stroke-width="1"/>
<text x="570" y="127" fill="#8b949e" font-size="11" font-weight="400" font-family="monospace">↳ MALNV</text>
<text x="750" y="127" fill="#8b949e" font-size="9" font-weight="400" font-family="monospace" text-anchor="end">text</text>
<rect x="560" y="134" width="200" height="22" rx="0" fill="#161b22" stroke="none" stroke-width="1"/>
<text x="570" y="149" fill="#8b949e" font-size="11" font-weight="400" font-family="monospace">↳ MADOI</text>
<text x="750" y="149" fill="#8b949e" font-size="9" font-weight="400" font-family="monospace" text-anchor="end">text</text>
<rect x="560" y="156" width="200" height="22" rx="0" fill="#1c2128" stroke="none" stroke-width="1"/>
<text x="570" y="171" fill="#c9d1d9" font-size="11" font-weight="400" font-family="monospace">HOTEN</text>
<text x="750" y="171" fill="#8b949e" font-size="9" font-weight="400" font-family="monospace" text-anchor="end">text</text>
<rect x="560" y="178" width="200" height="22" rx="0" fill="#161b22" stroke="none" stroke-width="1"/>
<text x="570" y="193" fill="#c9d1d9" font-size="11" font-weight="400" font-family="monospace">GIOITINH</text>
<text x="750" y="193" fill="#8b949e" font-size="9" font-weight="400" font-family="monospace" text-anchor="end">text</text>
<rect x="560" y="200" width="200" height="22" rx="0" fill="#1c2128" stroke="none" stroke-width="1"/>
<text x="570" y="215" fill="#c9d1d9" font-size="11" font-weight="400" font-family="monospace">NAMSINH</text>
<text x="750" y="215" fill="#8b949e" font-size="9" font-weight="400" font-family="monospace" text-anchor="end">text</text>
<rect x="560" y="222" width="200" height="22" rx="0" fill="#161b22" stroke="none" stroke-width="1"/>
<text x="570" y="237" fill="#c9d1d9" font-size="11" font-weight="400" font-family="monospace">DIACHI</text>
<text x="750" y="237" fill="#8b949e" font-size="9" font-weight="400" font-family="monospace" text-anchor="end">text</text>
<rect x="560" y="244" width="200" height="22" rx="0" fill="#1c2128" stroke="none" stroke-width="1"/>
<text x="570" y="259" fill="#c9d1d9" font-size="11" font-weight="400" font-family="monospace">DIENTHOAI</text>
<text x="750" y="259" fill="#8b949e" font-size="9" font-weight="400" font-family="monospace" text-anchor="end">text</text>
<rect x="560" y="266" width="200" height="22" rx="0" fill="#161b22" stroke="none" stroke-width="1"/>
<text x="570" y="281" fill="#c9d1d9" font-size="11" font-weight="400" font-family="monospace">NGAYVAOLAM</text>
<text x="750" y="281" fill="#8b949e" font-size="9" font-weight="400" font-family="monospace" text-anchor="end">text</text>
<rect x="560" y="288" width="200" height="22" rx="0" fill="#1c2128" stroke="none" stroke-width="1"/>
<text x="570" y="303" fill="#c9d1d9" font-size="11" font-weight="400" font-family="monospace">GHICHU</text>
<text x="750" y="303" fill="#8b949e" font-size="9" font-weight="400" font-family="monospace" text-anchor="end">text</text>
<rect x="40" y="442" width="200" height="74" rx="6" fill="#161b22" stroke="#30363d" stroke-width="1"/>
<rect x="40" y="466" width="200" height="6" rx="0" fill="#1c2128" stroke="#1c2128" stroke-width="1"/>
<rect x="40" y="442" width="200" height="30" rx="6" fill="#1c2128" stroke="#30363d" stroke-width="1"/>
<line x1="40" y1="472" x2="240" y2="472" stroke="#30363d" stroke-width="1"/>
<text x="50" y="461" fill="#e6edf3" font-size="13" font-weight="600" font-family="monospace">NHOM_HANG</text>
<rect x="40" y="472" width="200" height="22" rx="0" fill="#161b22" stroke="none" stroke-width="1"/>
<text x="50" y="487" fill="#58a6ff" font-size="11" font-weight="600" font-family="monospace">🔑 MANHOM</text>
<text x="230" y="487" fill="#8b949e" font-size="9" font-weight="400" font-family="monospace" text-anchor="end">text</text>
<rect x="40" y="494" width="200" height="22" rx="0" fill="#1c2128" stroke="none" stroke-width="1"/>
<text x="50" y="509" fill="#c9d1d9" font-size="11" font-weight="400" font-family="monospace">TENNHOM</text>
<text x="230" y="509" fill="#8b949e" font-size="9" font-weight="400" font-family="monospace" text-anchor="end">text</text>
<rect x="820" y="224" width="200" height="96" rx="6" fill="#161b22" stroke="#30363d" stroke-width="1"/>
<rect x="820" y="248" width="200" height="6" rx="0" fill="#1c2128" stroke="#1c2128" stroke-width="1"/>
<rect x="820" y="224" width="200" height="30" rx="6" fill="#1c2128" stroke="#30363d" stroke-width="1"/>
<line x1="820" y1="254" x2="1020" y2="254" stroke="#30363d" stroke-width="1"/>
<text x="830" y="243" fill="#e6edf3" font-size="13" font-weight="600" font-family="monospace">PHIEU_XUAT</text>
<rect x="820" y="254" width="200" height="22" rx="0" fill="#161b22" stroke="none" stroke-width="1"/>
<text x="830" y="269" fill="#58a6ff" font-size="11" font-weight="600" font-family="monospace">🔑 MAPX</text>
<text x="1010" y="269" fill="#8b949e" font-size="9" font-weight="400" font-family="monospace" text-anchor="end">text</text>
<rect x="820" y="276" width="200" height="22" rx="0" fill="#1c2128" stroke="none" stroke-width="1"/>
<text x="830" y="291" fill="#8b949e" font-size="11" font-weight="400" font-family="monospace">↳ MANV</text>
<text x="1010" y="291" fill="#8b949e" font-size="9" font-weight="400" font-family="monospace" text-anchor="end">text</text>
<rect x="820" y="298" width="200" height="22" rx="0" fill="#161b22" stroke="none" stroke-width="1"/>
<text x="830" y="313" fill="#c9d1d9" font-size="11" font-weight="400" font-family="monospace">NGAYXUAT</text>
<text x="1010" y="313" fill="#8b949e" font-size="9" font-weight="400" font-family="monospace" text-anchor="end">text</text>
<rect x="1140" y="476" width="220" height="60" rx="4" fill="#161b22" stroke="#30363d" stroke-width="1"/>
<text x="1150" y="492" fill="#e6edf3" font-size="11" font-weight="600">Legend</text>
<text x="1150" y="508" fill="#58a6ff" font-size="10" font-weight="400" font-family="monospace">🔑 PK column</text>
<text x="1150" y="524" fill="#8b949e" font-size="10" font-weight="400" font-family="monospace">↳ FK column  ─ ─ → FK relationship</text>
</svg>